<mxfile host="app.diagrams.net" modified="2023-04-16T20:20:02.304Z" agent="Mozilla/5.0 (Windows NT 10.0; WOW64) AppleWebKit/537.36 (KHTML, like Gecko) Chrome/105.0.0.0 Safari/537.36  SberBrowser/3.1.0.0" version="21.1.8" etag="0h7Pq_4hJ_LG-v_VBeZ0" type="github">
  <diagram name="Страница 1" id="h-G-vhxxUBWK7qmxTNBn">
    <mxGraphModel>
      <root>
        <mxCell id="0" />
        <mxCell id="1" parent="0" />
      </root>
    </mxGraphModel>
  </diagram>
</mxfile>
